<svg width="33" height="33" viewBox="0 0 33 33" fill="none" xmlns="http://www.w3.org/2000/svg">
<path fill-rule="evenodd" clip-rule="evenodd" d="M16.0029 5.95166C9.9278 5.95166 5.00293 10.8765 5.00293 16.9517C5.00293 23.0268 9.9278 27.9517 16.0029 27.9517C22.0781 27.9517 27.0029 23.0268 27.0029 16.9517C27.0029 10.8765 22.0781 5.95166 16.0029 5.95166ZM3.00293 16.9517C3.00293 9.77196 8.82323 3.95166 16.0029 3.95166C23.1826 3.95166 29.0029 9.77196 29.0029 16.9517C29.0029 24.1314 23.1826 29.9517 16.0029 29.9517C8.82323 29.9517 3.00293 24.1314 3.00293 16.9517Z" fill="#50585B"/>
<path fill-rule="evenodd" clip-rule="evenodd" d="M19.0049 10.9517H21.0029C21.5552 10.9517 22.0029 11.3994 22.0029 11.9517C22.0029 12.5039 21.5552 12.9517 21.0029 12.9517H18.9987C18.7363 12.9506 18.4763 13.0014 18.2337 13.1013C17.991 13.2012 17.7706 13.3482 17.585 13.5338C17.3995 13.7193 17.2525 13.9398 17.1526 14.1824C17.0527 14.425 17.0018 14.6851 17.0029 14.9475L17.0029 14.9517L17.0029 28.9517C17.0029 29.5039 16.5552 29.9517 16.0029 29.9517C15.4506 29.9517 15.0029 29.5039 15.0029 28.9517V14.9536" fill="#50585B"/>
<path fill-rule="evenodd" clip-rule="evenodd" d="M11.0029 18.9517C11.0029 18.3994 11.4506 17.9517 12.0029 17.9517H20.0029C20.5552 17.9517 21.0029 18.3994 21.0029 18.9517C21.0029 19.5039 20.5552 19.9517 20.0029 19.9517H12.0029C11.4506 19.9517 11.0029 19.5039 11.0029 18.9517Z" fill="#50585B"/>
</svg>
