<svg width="33" height="33" viewBox="0 0 33 33" fill="none" xmlns="http://www.w3.org/2000/svg">
<path fill-rule="evenodd" clip-rule="evenodd" d="M16.0029 12.9517C13.7938 12.9517 12.0029 14.7425 12.0029 16.9517C12.0029 19.1608 13.7938 20.9517 16.0029 20.9517C18.2121 20.9517 20.0029 19.1608 20.0029 16.9517C20.0029 14.7425 18.2121 12.9517 16.0029 12.9517ZM10.0029 16.9517C10.0029 13.638 12.6892 10.9517 16.0029 10.9517C19.3166 10.9517 22.0029 13.638 22.0029 16.9517C22.0029 20.2654 19.3166 22.9517 16.0029 22.9517C12.6892 22.9517 10.0029 20.2654 10.0029 16.9517Z" fill="#50585B"/>
<path fill-rule="evenodd" clip-rule="evenodd" d="M10.5029 6.45166C7.74151 6.45166 5.50293 8.69024 5.50293 11.4517V22.4517C5.50293 25.2131 7.74151 27.4517 10.5029 27.4517H21.5029C24.2644 27.4517 26.5029 25.2131 26.5029 22.4517V11.4517C26.5029 8.69024 24.2644 6.45166 21.5029 6.45166H10.5029ZM3.50293 11.4517C3.50293 7.58567 6.63694 4.45166 10.5029 4.45166H21.5029C25.3689 4.45166 28.5029 7.58567 28.5029 11.4517V22.4517C28.5029 26.3177 25.3689 29.4517 21.5029 29.4517H10.5029C6.63694 29.4517 3.50293 26.3177 3.50293 22.4517V11.4517Z" fill="#50585B"/>
<path d="M22.5029 11.9517C23.3314 11.9517 24.0029 11.2801 24.0029 10.4517C24.0029 9.62323 23.3314 8.95166 22.5029 8.95166C21.6745 8.95166 21.0029 9.62323 21.0029 10.4517C21.0029 11.2801 21.6745 11.9517 22.5029 11.9517Z" fill="#50585B"/>
</svg>
