<svg width="33" height="33" viewBox="0 0 33 33" fill="none" xmlns="http://www.w3.org/2000/svg">
<path fill-rule="evenodd" clip-rule="evenodd" d="M3.50293 6.45166C3.50293 5.34709 4.39836 4.45166 5.50293 4.45166H26.5029C27.6075 4.45166 28.5029 5.34709 28.5029 6.45166V27.4517C28.5029 28.5562 27.6075 29.4517 26.5029 29.4517H5.50293C4.39836 29.4517 3.50293 28.5562 3.50293 27.4517V6.45166ZM26.5029 6.45166H5.50293V27.4517H26.5029V6.45166Z" fill="#50585B"/>
<path fill-rule="evenodd" clip-rule="evenodd" d="M15.0029 13.9517C15.5552 13.9517 16.0029 14.3994 16.0029 14.9517V22.9517C16.0029 23.5039 15.5552 23.9517 15.0029 23.9517C14.4506 23.9517 14.0029 23.5039 14.0029 22.9517V14.9517C14.0029 14.3994 14.4506 13.9517 15.0029 13.9517Z" fill="#50585B"/>
<path fill-rule="evenodd" clip-rule="evenodd" d="M11.0029 13.9517C11.5552 13.9517 12.0029 14.3994 12.0029 14.9517V22.9517C12.0029 23.5039 11.5552 23.9517 11.0029 23.9517C10.4506 23.9517 10.0029 23.5039 10.0029 22.9517V14.9517C10.0029 14.3994 10.4506 13.9517 11.0029 13.9517Z" fill="#50585B"/>
<path fill-rule="evenodd" clip-rule="evenodd" d="M18.5029 15.9517C17.8399 15.9517 17.204 16.2151 16.7352 16.6839C16.2663 17.1527 16.0029 17.7886 16.0029 18.4517C16.0029 19.0039 15.5552 19.4517 15.0029 19.4517C14.4506 19.4517 14.0029 19.0039 14.0029 18.4517C14.0029 17.2582 14.477 16.1136 15.3209 15.2697C16.1649 14.4258 17.3095 13.9517 18.5029 13.9517C19.6964 13.9517 20.841 14.4258 21.6849 15.2697C22.5288 16.1136 23.0029 17.2582 23.0029 18.4517V22.9517C23.0029 23.5039 22.5552 23.9517 22.0029 23.9517C21.4506 23.9517 21.0029 23.5039 21.0029 22.9517V18.4517C21.0029 17.7886 20.7395 17.1527 20.2707 16.6839C19.8019 16.2151 19.166 15.9517 18.5029 15.9517Z" fill="#50585B"/>
<path d="M11.0029 12.4517C11.8314 12.4517 12.5029 11.7801 12.5029 10.9517C12.5029 10.1232 11.8314 9.45166 11.0029 9.45166C10.1745 9.45166 9.50293 10.1232 9.50293 10.9517C9.50293 11.7801 10.1745 12.4517 11.0029 12.4517Z" fill="#50585B"/>
</svg>
