<svg width="21" height="22" viewBox="0 0 21 22" fill="none" xmlns="http://www.w3.org/2000/svg">
<path fill-rule="evenodd" clip-rule="evenodd" d="M10.5 6.81884C9.41269 6.81884 8.53125 7.73471 8.53125 8.86449C8.53125 9.99427 9.41269 10.9101 10.5 10.9101C11.5873 10.9101 12.4688 9.99427 12.4688 8.86449C12.4688 7.73471 11.5873 6.81884 10.5 6.81884ZM7.21875 8.86449C7.21875 6.98152 8.68782 5.45508 10.5 5.45508C12.3122 5.45508 13.7812 6.98152 13.7812 8.86449C13.7812 10.7475 12.3122 12.2739 10.5 12.2739C8.68782 12.2739 7.21875 10.7475 7.21875 8.86449Z" fill="#5E9FFF"/>
<path fill-rule="evenodd" clip-rule="evenodd" d="M10.5 2.72753C8.93357 2.72753 7.43129 3.3741 6.32365 4.525C5.21601 5.6759 4.59375 7.23685 4.59375 8.86447C4.59375 11.6874 6.1109 14.2579 7.71396 16.1734C8.50747 17.1216 9.30267 17.8861 9.89963 18.4133C10.1357 18.6218 10.34 18.7926 10.5 18.9222C10.66 18.7926 10.8643 18.6218 11.1004 18.4133C11.6973 17.8861 12.4925 17.1216 13.286 16.1734C14.8891 14.2579 16.4062 11.6874 16.4062 8.86447C16.4062 7.23685 15.784 5.6759 14.6763 4.525C13.5687 3.3741 12.0664 2.72753 10.5 2.72753ZM10.5 19.7746C10.1237 20.3332 10.1235 20.3331 10.1233 20.3329L10.1227 20.3325L10.1212 20.3314L10.1163 20.3278L10.0997 20.3155C10.0855 20.305 10.0652 20.2899 10.0394 20.2702C9.98762 20.231 9.91326 20.1737 9.81952 20.0993C9.63209 19.9504 9.3668 19.7326 9.04959 19.4524C8.41608 18.8929 7.57065 18.0805 6.72354 17.0683C5.04535 15.063 3.28125 12.1785 3.28125 8.86447C3.28125 6.87516 4.04179 4.96733 5.39557 3.56067C6.74935 2.15402 8.58547 1.36377 10.5 1.36377C12.4145 1.36377 14.2506 2.15402 15.6044 3.56067C16.9582 4.96733 17.7188 6.87516 17.7188 8.86447C17.7188 12.1785 15.9546 15.063 14.2765 17.0683C13.4293 18.0805 12.5839 18.8929 11.9504 19.4524C11.6332 19.7326 11.3679 19.9504 11.1805 20.0993C11.0867 20.1737 11.0124 20.231 10.9606 20.2702C10.9348 20.2899 10.9145 20.305 10.9003 20.3155L10.8837 20.3278L10.8788 20.3314L10.8773 20.3325L10.8767 20.3329C10.8765 20.3331 10.8763 20.3332 10.5 19.7746ZM10.5 19.7746L10.8763 20.3332C10.6504 20.4975 10.3496 20.4975 10.1237 20.3332L10.5 19.7746Z" fill="#5E9FFF"/>
</svg>
