<svg width="31" height="32" viewBox="0 0 31 32" fill="none" xmlns="http://www.w3.org/2000/svg">
<path fill-rule="evenodd" clip-rule="evenodd" d="M3.47376 6.58579C3.83711 6.21071 4.32992 6 4.84378 6H26.1563C26.6701 6 27.1629 6.21071 27.5263 6.58579C27.8897 6.96086 28.0938 7.46957 28.0938 8V24C28.0938 24.5304 27.8897 25.0391 27.5263 25.4142C27.1629 25.7893 26.6701 26 26.1563 26H9.99051C9.99632 26 10.0019 25.9978 10.0063 25.9939L9.9905 25.975L9.37269 25.2375L9.994 26.0047L6.08267 29.3797L6.07897 29.3829C5.7967 29.624 5.45399 29.7776 5.09059 29.8258C4.72719 29.874 4.35801 29.8148 4.02588 29.6551C3.69374 29.4955 3.41226 29.2419 3.2141 28.9238C3.01594 28.6057 2.90921 28.2361 2.90631 27.8579L2.90625 27.85L2.90628 8C2.90628 7.46957 3.11041 6.96086 3.47376 6.58579ZM8.74619 24.4747C9.09264 24.1686 9.53374 24.0001 9.99002 24H26.1563V8L4.84378 8V27.842L8.74619 24.4747Z" fill="#50585B"/>
<path d="M15.5 17.5C16.3025 17.5 16.9531 16.8284 16.9531 16C16.9531 15.1716 16.3025 14.5 15.5 14.5C14.6975 14.5 14.0469 15.1716 14.0469 16C14.0469 16.8284 14.6975 17.5 15.5 17.5Z" fill="#50585B"/>
<path d="M9.6875 17.5C10.49 17.5 11.1406 16.8284 11.1406 16C11.1406 15.1716 10.49 14.5 9.6875 14.5C8.88496 14.5 8.23438 15.1716 8.23438 16C8.23438 16.8284 8.88496 17.5 9.6875 17.5Z" fill="#50585B"/>
<path d="M21.3125 17.5C22.115 17.5 22.7656 16.8284 22.7656 16C22.7656 15.1716 22.115 14.5 21.3125 14.5C20.51 14.5 19.8594 15.1716 19.8594 16C19.8594 16.8284 20.51 17.5 21.3125 17.5Z" fill="#50585B"/>
</svg>
