<svg width="21" height="22" viewBox="0 0 21 22" fill="none" xmlns="http://www.w3.org/2000/svg">
<path fill-rule="evenodd" clip-rule="evenodd" d="M9.51562 3.4375C6.07247 3.4375 3.28125 6.36164 3.28125 9.96875C3.28125 13.5759 6.07247 16.5 9.51562 16.5C12.9588 16.5 15.75 13.5759 15.75 9.96875C15.75 6.36164 12.9588 3.4375 9.51562 3.4375ZM1.96875 9.96875C1.96875 5.60225 5.3476 2.0625 9.51562 2.0625C13.6836 2.0625 17.0625 5.60225 17.0625 9.96875C17.0625 14.3353 13.6836 17.875 9.51562 17.875C5.3476 17.875 1.96875 14.3353 1.96875 9.96875Z" fill="black"/>
<path fill-rule="evenodd" clip-rule="evenodd" d="M13.9243 14.5873C14.1805 14.3188 14.5961 14.3188 14.8523 14.5873L18.8391 18.7639C19.0953 19.0323 19.0953 19.4676 18.8391 19.7361C18.5828 20.0046 18.1673 20.0046 17.911 19.7361L13.9243 15.5596C13.668 15.2911 13.668 14.8558 13.9243 14.5873Z" fill="black"/>
</svg>
