<svg width="33" height="33" viewBox="0 0 33 33" fill="none" xmlns="http://www.w3.org/2000/svg">
<path fill-rule="evenodd" clip-rule="evenodd" d="M21.0518 7.95154C18.861 7.92166 17.0029 9.75763 17.0029 11.9516V13.9516C17.0029 14.2456 16.8736 14.5246 16.6493 14.7146C16.425 14.9047 16.1285 14.9863 15.8385 14.938C12.6335 14.4038 9.74304 12.8146 7.68638 11.4007C6.92557 10.8776 6.26961 10.3721 5.74345 9.9412C5.38458 14.1618 6.65375 17.0777 8.05797 18.9834C8.86545 20.0793 9.73043 20.8573 10.3897 21.3589C10.7187 21.6093 10.9946 21.7893 11.1833 21.9042C11.2775 21.9616 11.3498 22.0027 11.3958 22.028C11.4187 22.0406 11.4351 22.0493 11.4444 22.0542L11.4519 22.0581L11.4511 22.0577C11.7071 22.1861 11.8959 22.4181 11.9694 22.695C12.043 22.9722 11.9941 23.2677 11.835 23.5063C10.7174 25.1826 9.075 26.3996 7.76741 27.1841C7.53388 27.3242 7.30862 27.452 7.09591 27.5674C7.73698 27.7749 8.67285 27.9516 10.0029 27.9516H10.0034C13.8133 27.9535 17.4809 26.5044 20.2605 23.8989C23.0402 21.2934 24.7232 17.7271 24.9675 13.925C24.983 13.6825 25.0864 13.4539 25.2583 13.282L27.5887 10.9516H25.5904C25.1928 10.9516 24.8329 10.716 24.6739 10.3516C24.3657 9.64536 23.8602 9.04319 23.218 8.61744C22.5758 8.19168 21.8243 7.96046 21.0539 7.95156L21.0518 7.95154ZM5.00291 27.4516C4.17086 28.0063 4.17136 28.0071 4.17187 28.0078L4.17291 28.0094L4.17508 28.0126L4.17974 28.0194L4.19039 28.0347C4.1981 28.0455 4.20703 28.0578 4.21725 28.0713C4.23768 28.0984 4.26324 28.1305 4.29443 28.1669C4.35688 28.2397 4.44163 28.3293 4.5527 28.4293C4.77555 28.6299 5.1001 28.8683 5.5557 29.0961C6.46877 29.5526 7.87709 29.9516 10.0024 29.9516M4.65179 26.5153C4.65153 26.5154 4.65128 26.5155 4.65103 26.5156C4.36565 26.6229 4.14479 26.8545 4.05119 27.1447C3.95751 27.4351 4.00158 27.7524 4.17086 28.0063L5.00291 27.4516M4.65179 26.5153L4.65597 26.5137L4.6822 26.5035C4.70679 26.4938 4.74532 26.4784 4.79634 26.4573C4.89844 26.4151 5.05019 26.3501 5.2401 26.2624C5.6207 26.0868 6.1503 25.822 6.73841 25.4691C7.67305 24.9084 8.70917 24.1524 9.53842 23.2144C9.7747 23.3811 9.97994 23.5131 10.1429 23.6123C10.2635 23.6858 10.3611 23.7414 10.4314 23.7801C10.4665 23.7994 10.4948 23.8145 10.5157 23.8255L10.5414 23.8388L10.55 23.8432L10.5532 23.8448L10.5546 23.8455M5.00291 7.95163C5.71002 7.24452 5.70986 7.24437 5.70973 7.24423L5.71087 7.24536L5.71888 7.25328L5.75603 7.2895C5.79005 7.32243 5.84241 7.37256 5.91213 7.43769C6.05162 7.568 6.26031 7.75813 6.53043 7.99073C7.07129 8.45648 7.85499 9.08953 8.81944 9.75259C10.4901 10.9011 12.6531 12.1049 15.0029 12.7161V11.9516C15.0029 8.64597 17.7693 5.90717 21.078 5.95171C22.2333 5.96525 23.3601 6.31207 24.3231 6.95051C25.0989 7.46483 25.7417 8.15077 26.204 8.95163H30.0029C30.4074 8.95163 30.772 9.19527 30.9268 9.56895C31.0816 9.94262 30.996 10.3727 30.71 10.6587L26.9346 14.4342C26.5728 18.6003 24.6859 22.492 21.6283 25.3581C18.4778 28.3111 14.321 29.9536 10.0029 29.9516M5.00291 7.95163L5.71002 7.24452C5.70986 7.24437 5.7097 7.24421 5.70955 7.24405C5.44655 6.9814 5.05956 6.88628 4.70474 6.99712C4.34972 7.10802 4.08558 7.4068 4.01904 7.77274C2.96678 13.5602 4.54463 17.5869 6.44785 20.1698C7.39037 21.449 8.40039 22.3584 9.17864 22.9506C9.30487 23.0466 9.42521 23.1345 9.53842 23.2144" fill="#50585B"/>
</svg>
